<svg width="194" height="194" version="1.1" xmlns="http://www.w3.org/2000/svg" xmlns:xlink="http://www.w3.org/1999/xlink"><path d="M172.27 125.88L174.02 127.63L173.05 128.60Q146.47 130.54 139.87 126.46L139.87 126.46Q124.94 106.68 113.10 86.31L113.10 86.31L112.52 159.64Q112.52 164.88 106.89 170.31L106.89 170.31Q103.98 170.31 102.04 165.07L102.04 165.07Q100.88 162.16 100.30 161.19L100.30 161.19Q98.75 154.40 101.27 141.40L101.27 141.40Q102.24 136.94 102.63 134.22L102.63 134.22Q104.57 118.90 104.57 87.66L104.57 87.66Q89.63 115.02 64.80 133.45L64.80 133.45Q63.05 133.45 62.86 132.09L62.86 132.09Q66.35 126.85 82.26 106.29L82.26 106.29Q97.19 87.28 102.43 73.31L102.43 73.31L88.66 74.86Q82.84 74.67 78.57 70.01L78.57 70.01L80.32 68.46L104.76 64.38L105.34 63.61Q104.76 58.37 105.15 42.46L105.15 42.46Q105.15 28.69 100.10 21.12L100.10 21.12Q97.78 17.82 97.78 15.30L97.78 15.30Q101.66 11.23 111.74 18.02L111.74 18.02Q116.01 20.93 117.56 23.26L117.56 23.26Q117.95 23.84 117.95 25.39L117.95 25.39Q117.95 26.17 116.21 30.82L116.21 30.82L115.82 31.99Q113.49 41.10 113.49 61.09L113.49 61.09Q116.40 60.70 127.46 56.82L127.46 56.82Q139.10 52.74 145.50 57.21L145.50 57.21Q146.28 57.79 147.05 58.56L147.05 58.56Q147.25 59.73 146.86 60.50L146.86 60.50Q146.47 61.47 145.69 61.67L145.69 61.67L113.49 70.40Q113.10 71.76 113.10 78.35L113.10 78.35Q130.95 97.56 132.11 98.72L132.11 98.72Q143.56 110.17 154.23 115.99L154.23 115.99L172.27 125.88ZM73.53 68.46L73.53 68.46Q73.33 71.56 53.16 76.02L53.16 76.02Q52.38 78.16 52.57 89.60L52.57 89.60L62.86 92.71Q68.48 95.04 69.06 98.92L69.06 98.92Q69.65 103.38 67.71 103.77L67.71 103.77L64.41 103.77L64.21 103.77Q59.75 101.24 52.57 94.45L52.57 94.45Q51.60 110.75 50.63 155.76L50.63 155.76Q48.11 161.58 45.98 163.13L45.98 163.13Q43.84 163.13 42.49 161.19L42.49 161.19Q37.05 153.24 39.96 140.63L39.96 140.63L42.29 129.76Q43.84 121.81 44.23 98.33L44.23 98.33Q44.23 95.23 44.23 92.90L44.23 92.90Q34.92 112.30 11.83 135.19L11.83 135.19Q7.57 139.46 4.46 139.46L4.46 139.46L4.46 137.33Q29.88 104.35 39.96 82.04L39.96 82.04Q40.93 80.29 41.52 78.55L41.52 78.55L26.58 80.87Q16.88 81.84 11.06 77.58L11.06 77.58Q11.06 75.83 13.77 75.44L13.77 75.44L41.13 70.59Q43.07 70.20 44.81 69.82L44.81 69.82L45.20 46.73Q44.62 32.76 39.38 25.00L39.38 25.00L39.19 22.09Q43.26 18.60 49.66 23.64L49.66 23.64Q54.32 27.14 55.48 27.72L55.48 27.72Q57.62 30.05 57.81 31.99L57.81 31.99Q53.54 51.39 53.16 62.44L53.16 62.44Q53.16 64.58 53.16 66.91L53.16 66.91L64.02 64.77Q70.23 64.19 73.53 68.46Z" stroke="#000" fill="black" /></svg>