<?xml version="1.0" encoding="UTF-8" standalone="no"?>
        <svg 
    viewBox="3.0029296875 -86.6455078125 448.0224609375 57.4951171875"
    width="445.01953125"
    height="144.140625"
   xmlns="http://www.w3.org/2000/svg"
   xmlns:svg="http://www.w3.org/2000/svg">
   <path d="M28.05-90.01L28.05-128.10L54.57-125.54Q54.35-123.85 53.28-122.75Q52.22-121.66 49.07-121.22L49.07-121.22L49.07-90.89L57.42-102.91Q57.42-102.91 59.73-100.85Q62.04-98.80 65.30-95.84Q68.55-92.87 71.41-90.01L71.41-90.01L90.89-90.01L90.89-127.81L117.48-125.24Q117.26-123.71 116.16-122.53Q115.06-121.36 111.91-120.92L111.91-120.92L111.91-90.01L119.68-90.01L129.27-103.34Q129.27-103.34 131.03-101.88Q132.79-100.42 135.50-98.07Q138.21-95.73 141.14-93.13Q144.07-90.53 146.41-88.18L146.41-88.18Q145.75-85.77 142.24-85.77L142.24-85.77L115.21-85.77Q119.90-69.95 128.94-58.19Q137.99-46.44 148.83-40.80L148.83-40.80L148.83-38.96Q141.72-33.62 138.21-26.66Q134.69-19.70 133.67-10.99L133.67-10.99Q127.15-19.12 122.94-31.16Q118.73-43.21 116.24-57.31Q113.75-71.41 112.35-85.77L112.35-85.77L111.91-85.77L111.91 6.59Q111.91 7.62 109.28 9.38Q106.64 11.13 102.76 12.52Q98.88 13.92 94.92 13.92L94.92 13.92L90.89 13.92L90.89-43.80Q77.05-23.80 54.79-9.74L54.79-9.74L53.10-11.28Q61.96-20.80 68.63-32.96Q75.29-45.12 79.87-58.63Q84.45-72.14 87.01-85.77L87.01-85.77L71.41-85.77L71.26-86.28Q70.39-85.77 69.14-85.77L69.14-85.77L49.07-85.77L49.07-77.86Q59.03-74.63 64.38-70.31Q69.73-65.99 71.37-61.49Q73.02-56.98 71.89-53.17Q70.75-49.37 67.79-47.20Q64.82-45.04 60.90-45.41Q56.98-45.78 53.10-49.66L53.10-49.66Q53.54-55.74 52.29-61.96Q51.05-68.19 49.07-73.54L49.07-73.54L49.07 8.28Q49.07 9.08 46.51 10.47Q43.95 11.87 40.10 13.00Q36.25 14.14 32.23 14.14L32.23 14.14L28.05 14.14L28.05-43.07Q23.22-36.84 17.36-31.27Q11.50-25.71 4.61-20.87L4.61-20.87L3.00-22.34Q9.16-30.69 13.81-41.05Q18.46-51.42 21.68-62.88Q24.90-74.34 26.88-85.77L26.88-85.77L6.59-85.77L5.42-90.01L28.05-90.01ZM223.83-106.05L222.58-110.23L264.33-110.23L274.51-123.63Q274.51-123.63 276.38-122.13Q278.25-120.63 281.14-118.32Q284.03-116.02 287.15-113.38Q290.26-110.74 292.82-108.47L292.82-108.47Q292.38-106.05 288.57-106.05L288.57-106.05L223.83-106.05ZM220.97 13.04L211.38-10.77L230.13-12.16Q231.81-19.70 233.46-29.33Q235.11-38.96 236.46-49.00Q237.82-59.03 238.77-67.82L238.77-67.82L216.43-67.82L215.26-72.00L268.21-72.00L278.54-85.47Q278.54-85.47 280.41-84.01Q282.28-82.54 285.17-80.16Q288.06-77.78 291.25-75.15Q294.43-72.51 297.00-70.17L297.00-70.17Q296.56-67.82 292.82-67.82L292.82-67.82L263.96-67.82Q260.16-58.45 255.47-48.49Q250.78-38.53 245.65-29.22Q240.53-19.92 235.47-12.60L235.47-12.60L270.92-16.04Q268.65-22.49 265.80-28.56Q262.94-34.64 259.79-39.92L259.79-39.92L261.33-40.65Q275.10-35.23 283.08-28.31Q291.06-21.39 294.36-14.36Q297.66-7.32 297.29-1.39Q296.92 4.54 293.85 8.20Q290.77 11.87 286.05 12.01Q281.32 12.16 275.98 7.47L275.98 7.47Q275.68 2.64 274.62-2.38Q273.56-7.40 272.09-12.45L272.09-12.45Q264.26-8.20 252.87-2.78Q241.48 2.64 225.59 9.30L225.59 9.30Q223.97 12.38 220.97 13.04L220.97 13.04ZM159.45-76.46L158.28-80.71L177.76-80.71L177.76-97.78Q171.90-97.27 165.93-96.83Q159.96-96.39 154.17-96.31L154.17-96.31L153.74-98.36Q159.52-99.83 165.64-101.81Q171.75-103.78 177.76-106.05L177.76-106.05L177.76-128.54L202.66-125.98Q202.44-124.66 201.42-123.63Q200.39-122.61 197.68-122.24L197.68-122.24L197.68-114.62Q199.95-115.58 201.97-116.67Q203.98-117.77 205.66-118.80L205.66-118.80L222.44-103.34Q219.58-100.93 212.99-103.34L212.99-103.34Q209.62-102.54 205.81-101.77Q202.00-101.00 197.68-100.34L197.68-100.34L197.68-80.71L198.63-80.71L206.69-91.77Q206.69-91.77 209.22-89.65Q211.74-87.52 215.15-84.52Q218.55-81.52 221.26-78.88L221.26-78.88Q220.61-76.46 217.24-76.46L217.24-76.46L197.68-76.46L197.68-59.11L200.24-59.11L208.52-70.53Q208.52-70.53 211.12-68.33Q213.72-66.14 217.24-63.06Q220.75-59.99 223.54-57.28L223.54-57.28Q222.88-54.93 219.43-54.93L219.43-54.93L197.68-54.93L197.68-47.97Q207.13-45.78 212.37-42.19Q217.60-38.60 219.47-34.61Q221.34-30.62 220.68-27.06Q220.02-23.51 217.49-21.31Q214.97-19.12 211.45-19.12Q207.93-19.12 204.13-22.19L204.13-22.19Q203.91-27.47 202.11-32.96Q200.32-38.45 197.68-43.07L197.68-43.07L197.68 8.72Q197.68 9.52 195.26 10.84Q192.85 12.16 189.18 13.22Q185.52 14.28 181.93 14.28L181.93 14.28L177.76 14.28L177.76-23.22Q172.78-17.07 166.88-11.65Q160.99-6.23 154.32-1.46L154.32-1.46L152.86-3.15Q160.25-13.48 165.27-27.39Q170.29-41.31 173.07-54.93L173.07-54.93L156.15-54.93L154.98-59.11L177.76-59.11L177.76-76.46L159.45-76.46ZM342.11-85.18L340.94-89.43L404.37-89.43L414.92-102.91Q414.92-102.91 416.82-101.44Q418.73-99.98 421.73-97.63Q424.73-95.29 427.99-92.61Q431.25-89.94 433.96-87.60L433.96-87.60Q433.30-85.18 429.79-85.18L429.79-85.18L342.11-85.18ZM318.60-79.83L318.60-115.21L318.60-125.10L343.07-115.21L411.18-115.21L422.39-129.57Q422.39-129.57 424.48-128.03Q426.56-126.49 429.75-124.00Q432.93-121.51 436.45-118.69Q439.97-115.87 442.82-113.38L442.82-113.38Q442.16-111.04 438.43-111.04L438.43-111.04L339.92-111.04L339.92-79.83Q339.92-75.95 339.88-71.81Q339.84-67.68 339.62-63.28L339.62-63.28L415.36-63.28L426.12-76.68Q426.12-76.68 428.14-75.22Q430.15-73.75 433.23-71.45Q436.30-69.14 439.71-66.50Q443.12-63.87 445.97-61.52L445.97-61.52Q445.31-59.11 441.58-59.11L441.58-59.11L383.13-59.11Q385.55-50.90 389.17-44.42Q392.80-37.94 397.49-32.89L397.49-32.89Q402.69-39.48 407.70-46.73Q412.72-53.98 415.50-58.96L415.50-58.96L438.43-41.97Q437.92-41.02 436.52-40.47Q435.13-39.92 432.42-40.50L432.42-40.50Q426.27-37.72 418.40-34.39Q410.52-31.05 402.47-28.05L402.47-28.05Q411.55-20.07 423.27-15.38Q434.99-10.69 448.02-7.62L448.02-7.62L447.88-5.86Q434.25-2.86 429.57 12.89L429.57 12.89Q418.95 7.84 410.63 1.43Q402.32-4.98 396.17-14.14L396.17-14.14Q388.04-9.38 376.06-3.37Q364.09 2.64 346.66 10.47L346.66 10.47Q345.48 13.48 342.77 14.28L342.77 14.28L329.08-7.18L347.97-9.89L347.97-59.11L339.33-59.11Q338.60-49.66 336.73-39.73Q334.86-29.81 331.05-20.14Q327.25-10.47 320.84-1.61Q314.43 7.25 304.61 14.58L304.61 14.58L303.44 13.62Q310.55-0.44 313.77-16.44Q316.99-32.45 317.80-48.71Q318.60-64.97 318.60-79.83L318.60-79.83ZM380.86-59.11L368.99-59.11L368.99-13.18L394.04-17.43Q389.43-25.27 386.10-35.49Q382.76-45.70 380.86-59.11L380.86-59.11Z"/>
    </svg>
        