<svg width="194" height="194" version="1.1" xmlns="http://www.w3.org/2000/svg" xmlns:xlink="http://www.w3.org/1999/xlink"><path d="M148.60 46.95L148.60 46.95Q148.60 49.86 144.34 51.41L144.34 51.41Q124.16 58.01 121.25 58.59L121.25 58.59Q105.15 62.47 99.33 58.78L99.33 58.78Q98.55 58.39 98.55 57.04L98.55 57.04Q101.46 54.90 111.55 52.57L111.55 52.57Q113.49 51.99 114.85 51.60L114.85 51.60L131.73 44.81Q143.37 41.13 148.60 46.95ZM171.11 84.20L171.11 84.20Q171.11 85.75 168.78 86.91L168.78 86.91Q136.19 89.63 115.62 94.09L115.62 94.09Q121.83 95.84 123.38 97.19L123.38 97.19L123.38 99.52Q117.18 106.31 103.98 126.29L103.98 126.29Q103.60 126.88 103.01 127.65L103.01 127.65L103.01 128.62Q120.47 126.29 141.43 121.64L141.43 121.64L135.99 113.49Q134.83 110.77 136.19 108.45L136.19 108.45L138.52 109.03L151.90 118.34Q160.05 124.94 162.77 132.11L162.77 132.11Q162.77 140.26 162.77 140.46L162.77 140.46Q162.18 144.14 159.47 145.69L159.47 145.69L157.53 145.69Q154.62 142.20 145.31 127.65L145.31 127.65Q144.34 126.29 143.56 125.13L143.56 125.13Q111.55 133.86 90.99 146.66L90.99 146.66Q85.94 146.66 83.81 141.04L83.81 141.04Q82.84 138.13 83.61 135.41L83.61 135.41L96.22 125.13L98.55 122.41Q108.83 109.80 108.83 96.22L108.83 96.22L96.61 98.36Q91.57 98.55 87.88 95.06L87.88 95.06L87.88 93.51Q97.78 90.79 143.17 80.51L143.17 80.51Q145.50 79.93 147.44 79.54L147.44 79.54Q160.44 76.44 167.23 80.32L167.23 80.32Q169.94 81.67 171.11 84.20ZM82.64 45.01L82.64 45.01Q82.45 48.89 66.54 52.38L66.54 52.38Q63.05 52.96 62.08 53.35L62.08 53.35L61.50 68.09Q74.30 65.18 77.02 69.84L77.02 69.84Q76.82 72.75 62.27 76.05L62.27 76.05Q61.89 76.24 61.50 76.24L61.50 76.24L61.30 90.60Q71.00 87.49 77.41 89.05L77.41 89.05Q81.48 90.02 81.48 93.31L81.48 93.31L79.73 94.48L64.60 97.39Q62.66 97.97 60.92 98.55L60.92 98.55L60.92 110.77Q73.72 112.13 77.21 116.98L77.21 116.98Q80.51 122.03 77.99 123.77L77.99 123.77Q76.44 124.94 73.14 124.94L73.14 124.94Q67.71 122.61 61.30 114.65L61.30 114.65L60.92 164.71Q60.92 168.00 55.48 173.24L55.48 173.24Q50.83 172.27 48.31 161.21L48.31 161.21Q47.72 158.50 47.72 156.56L47.72 156.56Q47.72 154.23 50.25 143.95L50.25 143.95Q53.74 129.59 53.16 114.85L53.16 114.85L52.77 110.97Q37.44 130.37 28.71 137.55L28.71 137.55Q20.95 144.14 12.80 147.25L12.80 147.25L10.67 146.66L11.25 145.11Q38.02 123.19 48.11 102.24L48.11 102.24Q45.01 102.63 31.82 107.28L31.82 107.28Q16.68 112.71 9.51 107.86L9.51 107.86Q7.37 106.31 7.37 104.76L7.37 104.76L7.76 103.79Q10.09 102.43 18.82 101.07L18.82 101.07Q19.98 100.88 20.95 100.69L20.95 100.69L53.16 93.31Q54.51 82.64 53.74 78.38L53.74 78.38Q41.71 81.48 37.05 80.90L37.05 80.90Q33.17 80.51 30.07 78.18L30.07 78.18Q30.07 77.02 32.59 76.05L32.59 76.05Q41.52 74.88 54.32 70.81L54.32 70.81L54.32 56.07Q52.19 56.07 43.26 58.39L43.26 58.39Q36.86 59.95 32.01 58.20L32.01 58.20Q28.13 57.04 26.77 55.29L26.77 55.29L28.52 53.74L53.74 47.92Q54.71 38.02 52.19 29.68L52.19 29.68Q50.44 23.67 47.14 19.01L47.14 19.01L46.95 15.91Q48.31 14.74 52.77 14.74L52.77 14.74Q57.62 17.07 66.35 23.28L66.35 23.28Q66.74 24.44 66.74 24.83L66.74 24.83Q66.74 25.41 64.99 29.68L64.99 29.68Q64.80 30.26 64.80 30.65L64.80 30.65Q63.05 37.25 62.47 44.43L62.47 44.43L74.50 41.52Q79.35 41.13 82.64 45.01Z" stroke="#000" fill="black" /></svg>