<svg width="194" height="194" version="1.1" xmlns="http://www.w3.org/2000/svg" xmlns:xlink="http://www.w3.org/1999/xlink"><path d="M122.41 41.90L122.41 41.90Q122.41 44.43 120.28 45.01L120.28 45.01L88.08 54.71Q83.23 56.26 77.21 54.51L77.21 54.51L72.94 52.77L71.97 51.99Q71.97 50.83 73.91 49.86L73.91 49.86Q74.30 49.66 74.50 49.47L74.50 49.47Q89.24 46.75 99.72 42.49L99.72 42.49Q110.77 38.02 114.85 38.02L114.85 38.02Q119.89 38.22 122.41 41.90ZM173.82 141.62L173.82 141.62L173.24 143.75L148.41 146.86Q147.05 147.05 145.69 147.05L145.69 147.05Q136.77 147.05 132.70 144.72L132.70 144.72Q123.97 139.29 97.97 105.54L97.97 105.54Q92.15 97.97 90.21 95.64L90.21 95.64Q82.06 85.17 75.66 80.32L75.66 80.32Q74.11 80.32 69.84 82.06L69.84 82.06Q74.11 84.39 74.11 89.24L74.11 89.24Q74.11 90.21 72.56 100.69L72.56 100.69L72.56 101.46Q70.23 117.37 70.23 137.93L70.23 137.93L71.39 139.10Q75.27 137.93 90.40 130.76L90.40 130.76Q95.06 128.62 98.55 127.46L98.55 127.46Q99.13 127.85 99.13 129.40L99.13 129.40L74.69 151.13L65.57 160.83L63.83 162.38Q62.86 163.15 60.33 163.15L60.33 163.15Q54.51 157.53 54.51 150.93L54.51 150.93Q54.51 147.63 56.65 144.53L56.65 144.53Q57.23 143.75 57.62 142.78L57.62 142.78Q63.05 133.28 63.44 108.25L63.44 108.25Q63.63 92.73 61.11 85.55L61.11 85.55Q54.32 85.17 50.63 83.03L50.63 83.03Q33.95 129.40 11.45 144.92L11.45 144.92Q9.31 146.47 7.37 147.63L7.37 147.63Q6.60 148.02 4.66 148.02L4.66 148.02L4.66 146.08Q26.97 116.59 35.31 96.42L35.31 96.42Q40.16 84.78 42.49 72.75L42.49 72.75L47.92 46.75Q49.28 38.22 49.28 31.04L49.28 31.04Q49.28 27.16 49.08 26.38L49.08 26.38L46.95 20.37Q46.75 18.24 48.69 17.27L48.69 17.27Q53.16 17.27 60.33 22.70L60.33 22.70Q61.11 23.47 61.69 23.86L61.69 23.86Q75.66 22.50 108.64 14.36L108.64 14.36Q114.46 13.00 118.53 12.03L118.53 12.03Q122.22 11.25 123.97 11.25L123.97 11.25Q130.56 11.25 134.05 15.33L134.05 15.33Q134.05 17.46 131.73 18.04L131.73 18.04Q125.91 19.98 111.94 22.89L111.94 22.89Q81.29 29.29 73.91 30.46L73.91 30.46Q71.78 30.85 66.35 30.26L66.35 30.26L64.21 29.88Q61.89 34.14 59.17 47.14L59.17 47.14Q59.17 47.72 58.98 48.31L58.98 48.31Q58.20 52.57 51.99 77.99L51.99 77.99Q51.99 78.38 51.80 78.76L51.80 78.76L54.13 78.76Q57.42 78.38 70.81 74.69L70.81 74.69Q101.27 67.12 105.54 65.96L105.54 65.96L124.35 60.33Q137.35 57.42 145.31 65.38L145.31 65.38Q145.50 67.32 144.34 68.29L144.34 68.29L142.98 68.87Q140.46 69.65 125.32 70.62L125.32 70.62Q123.77 70.62 122.61 70.81L122.61 70.81Q97.97 73.53 81.87 78.57L81.87 78.57L85.55 80.51L85.75 80.70Q86.91 81.48 92.34 88.08L92.34 88.08Q93.12 89.05 93.70 89.82L93.70 89.82Q103.60 101.46 110.77 108.06L110.77 108.06L122.41 93.90Q127.07 87.69 129.20 82.06L129.20 82.06Q128.43 75.66 134.44 78.18L134.44 78.18Q140.46 80.51 145.31 85.94L145.31 85.94Q145.69 86.33 145.89 86.72L145.89 86.72L145.69 89.05Q140.26 91.76 125.13 102.82L125.13 102.82L115.04 109.61L113.49 110.39Q126.68 123.58 141.43 129.40L141.43 129.40L167.03 138.32Q170.72 139.87 173.82 141.62Z" stroke="#000" fill="black" /></svg>